<svg height="480pt" viewBox="0 -40 480 480" width="480pt" xmlns="http://www.w3.org/2000/svg"><path d="m416 368c4.417969 0 8-3.582031 8-8v-56h16c4.417969 0 8-3.582031 8-8s-3.582031-8-8-8h-48v-128c0-4.417969-3.582031-8-8-8h-288c-4.417969 0-8 3.582031-8 8s3.582031 8 8 8h280v80c-6.902344-5.234375-15.335938-8.046875-24-8h-8v-8c0-13.253906-10.746094-24-24-24h-48c-13.253906 0-24 10.746094-24 24v8h-16v-8c0-13.253906-10.746094-24-24-24h-48c-13.253906 0-24 10.746094-24 24v8h-8c-22.089844 0-40 17.910156-40 40v8h-48c-4.417969 0-8 3.582031-8 8s3.582031 8 8 8h16v56c0 4.417969 3.582031 8 8 8h24v24c0 4.417969 3.582031 8 8 8h32c4.417969 0 8-3.582031 8-8v-24h128c4.417969 0 8-3.582031 8-8s-3.582031-8-8-8h-192v-48h336v48h-112c-4.417969 0-8 3.582031-8 8s3.582031 8 8 8h48v24c0 4.417969 3.582031 8 8 8h32c4.417969 0 8-3.582031 8-8v-24zm-296 0v16h-16v-16zm144-136c0-4.417969 3.582031-8 8-8h48c4.417969 0 8 3.582031 8 8v8h-64zm-112 0c0-4.417969 3.582031-8 8-8h48c4.417969 0 8 3.582031 8 8v8h-64zm-48 48c0-13.253906 10.746094-24 24-24h224c13.253906 0 24 10.746094 24 24v8h-272zm272 104h-16v-16h16zm0 0"/><path d="m240 112c30.929688 0 56-25.070312 56-56s-25.070312-56-56-56-56 25.070312-56 56 25.070312 56 56 56zm0-96c22.089844 0 40 17.910156 40 40s-17.910156 40-40 40-40-17.910156-40-40 17.910156-40 40-40zm0 0"/><path d="m240 64h16c4.417969 0 8-3.582031 8-8s-3.582031-8-8-8h-8v-8c0-4.417969-3.582031-8-8-8s-8 3.582031-8 8v16c0 4.417969 3.582031 8 8 8zm0 0"/><path d="m472 256h-6.558594l6.558594-38.71875c.378906-2.335938-.292969-4.714844-1.835938-6.503906-1.542968-1.792969-3.800781-2.808594-6.164062-2.777344h-48c-2.363281-.03125-4.621094.984375-6.164062 2.777344-1.542969 1.789062-2.214844 4.167968-1.835938 6.503906l6.640625 38.71875c-3.882813.667969-6.699219 4.0625-6.640625 8 0 4.417969 3.582031 8 8 8h48v48h-16c-4.417969 0-8 3.582031-8 8s3.582031 8 8 8h16v48h-48c-4.417969 0-8 3.582031-8 8s3.582031 8 8 8h56c4.417969 0 8-3.582031 8-8v-128c0-4.417969-3.582031-8-8-8zm-41.199219 0-5.359375-32h29.117188l-5.359375 32zm0 0"/><path d="m64 384h-48v-48h16c4.417969 0 8-3.582031 8-8s-3.582031-8-8-8h-16v-48h48c4.417969 0 8-3.582031 8-8s-3.582031-8-8-8h-8v-32h32c2.683594-.003906 5.183594-1.347656 6.664062-3.585938 1.480469-2.234374 1.742188-5.066406.695313-7.535156l-24-56c-1.25-2.953125-4.148437-4.875-7.359375-4.878906h-32c-3.210938.003906-6.109375 1.925781-7.359375 4.878906l-24 56c-1.046875 2.46875-.785156 5.300782.695313 7.535156 1.480468 2.238282 3.980468 3.582032 6.664062 3.585938h32v32h-32c-4.417969 0-8 3.582031-8 8v128c0 4.417969 3.582031 8 8 8h56c4.417969 0 8-3.582031 8-8s-3.582031-8-8-8zm-26.71875-216h21.4375l17.121094 40h-56zm0 0"/></svg>