<svg height="480pt" viewBox="0 0 480 480" width="480pt" xmlns="http://www.w3.org/2000/svg"><path d="m472 400h-464c-4.417969 0-8 3.582031-8 8v48c0 13.253906 10.746094 24 24 24s24-10.746094 24-24v-40h384v40c0 13.253906 10.746094 24 24 24s24-10.746094 24-24v-48c0-4.417969-3.582031-8-8-8zm-440 56c0 4.417969-3.582031 8-8 8s-8-3.582031-8-8v-40h16zm432 0c0 4.417969-3.582031 8-8 8s-8-3.582031-8-8v-40h16zm0 0"/><path d="m472 208h-464c-4.417969 0-8 3.582031-8 8v104c0 4.417969 3.582031 8 8 8s8-3.582031 8-8v-96h16v144h-16v-16c0-4.417969-3.582031-8-8-8s-8 3.582031-8 8v24c0 4.417969 3.582031 8 8 8h464c4.417969 0 8-3.582031 8-8v-104c0-4.417969-3.582031-8-8-8s-8 3.582031-8 8v96h-16v-144h16v16c0 4.417969 3.582031 8 8 8s8-3.582031 8-8v-24c0-4.417969-3.582031-8-8-8zm-40 112h-24v-96h24zm0 48h-24v-32h24zm-40-144v96h-16v-96zm-56 96v-96h24v96zm24 16v32h-24v-32zm-40-112v96h-16v-96zm-56 96v-96h24v96zm24 16v32h-24v-32zm-40-112v96h-16v-96zm-56 96v-96h24v96zm24 16v32h-24v-32zm-40-112v96h-16v-96zm-56 96v-96h24v96zm24 16v32h-24v-32zm-40-112v96h-16v-96zm-32 96h-24v-96h24zm-24 16h24v32h-24zm40 32v-32h16v32zm72 0v-32h16v32zm72 0v-32h16v32zm72 0v-32h16v32zm72 0v-32h16v32zm0 0"/><path d="m8 192h464c4.417969 0 8-3.582031 8-8s-3.582031-8-8-8h-32v-96c-.027344-10.144531-6.433594-19.179688-16-22.558594v-33.441406c0-13.253906-10.746094-24-24-24h-144c-13.253906 0-24 10.746094-24 24v8h-32c-22.089844 0-40 17.910156-40 40v17.441406l-2.320312.957032-6.640626-6.71875c-3.136718-3.136719-8.222656-3.136719-11.359374 0-3.136719 3.136718-3.136719 8.222656 0 11.359374l6.71875 6.640626-.957032 2.320312h-9.441406c-4.417969 0-8 3.582031-8 8s3.582031 8 8 8h9.441406l.957032 2.320312-6.71875 6.640626c-1.515626 1.5-2.367188 3.546874-2.367188 5.679687s.851562 4.175781 2.367188 5.679687c1.511718 1.496094 3.554687 2.332032 5.679687 2.320313 2.128906.011719 4.171875-.824219 5.679687-2.320313l6.640626-6.71875 2.320312.957032v9.441406c0 4.417969 3.582031 8 8 8s8-3.582031 8-8v-9.441406l2.320312-.957032 6.640626 6.71875c1.507812 1.496094 3.550781 2.332032 5.679687 2.320313 2.125.011719 4.167969-.824219 5.679687-2.320313 1.515626-1.503906 2.367188-3.546874 2.367188-5.679687s-.851562-4.179687-2.367188-5.679687l-6.71875-6.640626.957032-2.320312h9.441406c4.417969 0 8-3.582031 8-8s-3.582031-8-8-8h-9.441406l-.957032-2.320312 6.71875-6.640626c3.136719-3.136718 3.136719-8.222656 0-11.359374-3.136718-3.136719-8.222656-3.136719-11.359374 0l-6.640626 6.71875-2.320312-.957032v-17.441406c0-13.253906 10.746094-24 24-24h32v33.441406c-11.019531 3.894532-17.632812 15.164063-15.65625 26.683594s11.96875 19.941406 23.65625 19.941406 21.679688-8.421875 23.65625-19.941406-4.636719-22.789062-15.65625-26.683594v-33.441406h32c13.253906 0 24 10.746094 24 24v14.078125l-20.320312 20.242187c-1.515626 1.5-2.367188 3.546876-2.367188 5.679688s.851562 4.179688 2.367188 5.679688l22.640624 22.640624c1.507813 1.496094 3.554688 2.332032 5.679688 2.320313 2.125.011719 4.171875-.824219 5.679688-2.320313l16.960937-17.039062 17.359375 17.039062c3.136719 3.113282 8.207031 3.097657 11.320312-.039062 3.113282-3.136719 3.097657-8.207031-.039062-11.320312l-17.359375-16.960938 16.957031-16.960938c1.515625-1.5 2.367188-3.546874 2.367188-5.679687s-.851563-4.175781-2.367188-5.679687c-3.121094-3.101563-8.160156-3.101563-11.277344 0l-16.960937 17.039062-14.640625-14.640625v-14.078125c0-22.089844-17.910156-40-40-40h-32v-8c0-4.417969 3.582031-8 8-8h144c4.417969 0 8 3.582031 8 8v33.441406c-9.566406 3.378906-15.972656 12.414063-16 22.558594v72c0 4.417969 3.582031 8 8 8s8-3.582031 8-8v-72c0-4.417969 3.582031-8 8-8s8 3.582031 8 8v96h-408v-64h24c17.671875 0 32 14.328125 32 32v8c0 4.417969 3.582031 8 8 8s8-3.582031 8-8v-8c0-26.507812-21.492188-48-48-48h-32c-4.417969 0-8 3.582031-8 8v80c0 4.417969 3.582031 8 8 8zm168-80c0 4.417969-3.582031 8-8 8s-8-3.582031-8-8 3.582031-8 8-8 8 3.582031 8 8zm64 0c-4.417969 0-8-3.582031-8-8s3.582031-8 8-8 8 3.582031 8 8-3.582031 8-8 8zm72 11.28125-11.359375-11.28125 11.359375-11.28125 11.28125 11.28125zm0 0"/></svg>