<svg height="480pt" viewBox="0 0 480.00058 480" width="480pt" xmlns="http://www.w3.org/2000/svg"><path d="m160 344c-4.417969 0-8 3.582031-8 8v32c0 4.417969 3.582031 8 8 8s8-3.582031 8-8v-32c0-4.417969-3.582031-8-8-8zm0 0"/><path d="m104 384v-32c0-4.417969-3.582031-8-8-8s-8 3.582031-8 8v32c0 4.417969 3.582031 8 8 8s8-3.582031 8-8zm0 0"/><path d="m8 96c-4.417969 0-8 3.582031-8 8s3.582031 8 8 8h240c4.417969 0 8-3.582031 8-8v-32c0-4.417969-3.582031-8-8-8h-1.4375c.929688-2.566406 1.417969-5.269531 1.4375-8v-16c0-4.417969-3.582031-8-8-8h-48c-4.417969 0-8 3.582031-8 8v16c.023438 2.730469.507812 5.433594 1.441406 8h-24.402344l6.960938-55.039062c.277344-2.257813-.421875-4.527344-1.917969-6.242188-1.535156-1.746094-3.753906-2.7382812-6.082031-2.71875h-64c-2.296875.00390625-4.484375.996094-6 2.71875-1.496094 1.714844-2.195312 3.984375-1.917969 6.242188l6.878907 55.039062h-22.960938c5.234375-6.902344 8.046875-15.335938 8-24 0-22.089844-17.90625-40-40-40-22.089844 0-40 17.910156-40 40-.046875 8.664062 2.765625 17.097656 8 24-4.417969 0-8 3.582031-8 8s3.582031 8 8 8h232v16zm8-56c0-13.253906 10.746094-24 24-24s24 10.746094 24 24-10.746094 24-24 24-24-10.746094-24-24zm95.039062 24-6-48h45.921876l-6 48zm96.960938 0c-4.417969 0-8-3.582031-8-8v-8h32v8c0 4.417969-3.582031 8-8 8zm0 0"/><path d="m472 224h-20.480469c2.910157-4.832031 4.457031-10.359375 4.480469-16h16c4.417969 0 8-3.582031 8-8s-3.582031-8-8-8h-88c-4.417969 0-8 3.582031-8 8v8c.023438 5.640625 1.570312 11.167969 4.480469 16h-24.960938c2.910157-4.832031 4.457031-10.359375 4.480469-16v-16c4.417969 0 8-3.582031 8-8v-16c0-13.253906-10.746094-24-24-24h-8v-8c0-13.253906-10.746094-24-24-24s-24 10.746094-24 24v8h-8c-13.253906 0-24 10.746094-24 24v16c0 4.417969 3.582031 8 8 8v16c.023438 5.640625 1.570312 11.167969 4.480469 16h-140.480469v-19.679688l20.402344-13.679687c3.214844-2.589844 3.929687-7.207031 1.648437-10.648437-2.28125-3.445313-6.808593-4.585938-10.449219-2.632813l-15.199218 10.082031c-2.917969-4.609375-7.277344-8.128906-12.402344-10v-9.441406c0-13.253906-10.746094-24-24-24s-24 10.746094-24 24v9.441406c-9.566406 3.382813-15.972656 12.414063-16 22.558594v24h-40c-4.417969 0-8 3.582031-8 8v176c0 4.417969 3.582031 8 8 8s8-3.582031 8-8v-136h104v192h-104v-24c0-4.417969-3.582031-8-8-8s-8 3.582031-8 8v32c0 4.417969 3.582031 8 8 8h240c4.417969 0 8-3.582031 8-8v-40h24v24c0 13.253906 10.746094 24 24 24s24-10.746094 24-24v-24h80v24c0 13.253906 10.746094 24 24 24s24-10.746094 24-24v-24h16c4.417969 0 8-3.582031 8-8v-64c0-4.417969-3.582031-8-8-8s-8 3.582031-8 8v56h-208v-112h184c4.417969 0 8-3.582031 8-8s-3.582031-8-8-8h-184v-48h208v88c0 4.417969 3.582031 8 8 8s8-3.582031 8-8v-96c0-4.417969-3.582031-8-8-8zm-32 208v24c0 4.417969-3.582031 8-8 8s-8-3.582031-8-8v-24zm-128 0v24c0 4.417969-3.582031 8-8 8s-8-3.582031-8-8v-24zm-8-296c0-4.417969 3.582031-8 8-8s8 3.582031 8 8v8h-16zm-224 32c0-4.417969 3.582031-8 8-8s8 3.582031 8 8v8h-16zm-16 32c0-4.417969 3.582031-8 8-8h32c4.417969 0 8 3.582031 8 8v24h-48zm-48 40h224v16h-224zm224 224h-104v-192h104zm56-240c-8.835938 0-16-7.164062-16-16v-16h24c4.417969 0 8-3.582031 8-8s-3.582031-8-8-8h-32v-8c0-4.417969 3.582031-8 8-8h64c4.417969 0 8 3.582031 8 8v8h-16c-4.417969 0-8 3.582031-8 8s3.582031 8 8 8h8v16c0 8.835938-7.164062 16-16 16zm112 0c-8.835938 0-16-7.164062-16-16h48c0 8.835938-7.164062 16-16 16zm0 0"/><path d="m312 264c0 4.417969-3.582031 8-8 8s-8-3.582031-8-8 3.582031-8 8-8 8 3.582031 8 8zm0 0"/><path d="m352 264c0 4.417969-3.582031 8-8 8s-8-3.582031-8-8 3.582031-8 8-8 8 3.582031 8 8zm0 0"/><path d="m392 264c0 4.417969-3.582031 8-8 8s-8-3.582031-8-8 3.582031-8 8-8 8 3.582031 8 8zm0 0"/><path d="m432 264c0 4.417969-3.582031 8-8 8s-8-3.582031-8-8 3.582031-8 8-8 8 3.582031 8 8zm0 0"/><path d="m408 320h-88c-4.417969 0-8 3.582031-8 8s3.582031 8 8 8h88c4.417969 0 8-3.582031 8-8s-3.582031-8-8-8zm0 0"/><path d="m408 352h-88c-4.417969 0-8 3.582031-8 8s3.582031 8 8 8h88c4.417969 0 8-3.582031 8-8s-3.582031-8-8-8zm0 0"/><path d="m408 384h-88c-4.417969 0-8 3.582031-8 8s3.582031 8 8 8h88c4.417969 0 8-3.582031 8-8s-3.582031-8-8-8zm0 0"/><path d="m393.359375 173.679688c1.511719 1.5 3.554687 2.332031 5.679687 2.320312 2.128907.011719 4.171876-.820312 5.679688-2.320312 1.515625-1.5 2.367188-3.546876 2.367188-5.679688s-.851563-4.175781-2.367188-5.679688c-1.6875-1.667968-2.640625-3.945312-2.640625-6.320312s.953125-4.652344 2.640625-6.320312c9.703125-9.789063 9.703125-25.566407 0-35.359376-3.136719-3.136718-8.222656-3.136718-11.359375 0-3.136719 3.136719-3.136719 8.222657 0 11.359376 1.691406 1.667968 2.644531 3.945312 2.644531 6.320312s-.953125 4.652344-2.644531 6.320312c-9.742187 9.773438-9.742187 25.585938 0 35.359376zm0 0"/><path d="m425.359375 173.679688c1.511719 1.5 3.554687 2.332031 5.679687 2.320312 2.128907.011719 4.171876-.820312 5.679688-2.320312 1.515625-1.5 2.367188-3.546876 2.367188-5.679688s-.851563-4.175781-2.367188-5.679688c-1.6875-1.667968-2.640625-3.945312-2.640625-6.320312s.953125-4.652344 2.640625-6.320312c9.703125-9.789063 9.703125-25.566407 0-35.359376-3.136719-3.136718-8.222656-3.136718-11.359375 0-3.136719 3.136719-3.136719 8.222657 0 11.359376 1.691406 1.667968 2.644531 3.945312 2.644531 6.320312s-.953125 4.652344-2.644531 6.320312c-9.742187 9.773438-9.742187 25.585938 0 35.359376zm0 0"/></svg>