<svg height="480pt" viewBox="-16 0 480 480.14742" width="480pt" xmlns="http://www.w3.org/2000/svg"><path d="m184.074219 168c0 4.417969 3.582031 8 8 8s8-3.582031 8-8c0-13.253906 10.746093-24 24-24 13.253906 0 24 10.746094 24 24 0 4.417969 3.582031 8 8 8s8-3.582031 8-8c.003906-19.011719-13.375-35.398438-32-39.199219v-17.921875c13.933593-3.785156 23.609375-16.4375 23.609375-30.878906s-9.675782-27.09375-23.609375-30.878906v-41.121094c0-4.417969-3.582031-8-8-8s-8 3.582031-8 8v41.121094c-13.9375 3.785156-23.609375 16.4375-23.609375 30.878906s9.671875 27.09375 23.609375 30.878906v17.921875c-18.628907 3.800781-32.003907 20.1875-32 39.199219zm24-88c0-8.835938 7.164062-16 16-16 8.835937 0 16 7.164062 16 16s-7.164063 16-16 16c-8.835938 0-16-7.164062-16-16zm0 0"/><path d="m440.074219 152h-16v-9.441406c9.566406-3.378906 15.972656-12.414063 16-22.558594 0-9.28125-7.519531-40-24-40s-24 30.71875-24 40c.027343 10.144531 6.433593 19.179688 16 22.558594v9.441406h-16c-4.417969 0-8 3.582031-8 8v8c.046875 14.554688 9.910156 27.242188 24 30.878906v9.121094c.097656 46.464844-35.949219 85-82.320313 88 1.578125-5.183594 2.359375-10.578125 2.320313-16v-8.800781c18.625-3.800781 32.003906-20.1875 32-39.199219v-16c0-4.417969-3.582031-8-8-8h-24v-17.121094c14.089843-3.636718 23.953125-16.324218 24-30.878906 0-11.519531-9.921875-56-32-56-22.082031 0-32 44.480469-32 56 .046875 14.554688 9.910156 27.242188 24 30.878906v17.121094h-24c-4.417969 0-8 3.582031-8 8v16c-.003907 19.011719 13.371093 35.398438 32 39.199219v8.800781c-.011719 5.214844-1.046875 10.378906-3.039063 15.199219-43.945312-5.554688-76.910156-42.90625-76.960937-87.199219v-40c0-4.417969-3.582031-8-8-8s-8 3.582031-8 8v40c-.054688 44.292969-33.019531 81.644531-76.960938 87.199219-1.996093-4.820313-3.027343-9.984375-3.039062-15.199219v-8.800781c18.625-3.800781 32.003906-20.1875 32-39.199219v-16c0-4.417969-3.582031-8-8-8h-24v-24c0-4.417969-3.582031-8-8-8-8.835938 0-16-7.164062-16-16 0-13.28125 10.320312-39.039062 16-40 5.757812.960938 16 26.71875 16 40 0 4.417969 3.582031 8 8 8s8-3.582031 8-8c0-11.519531-9.921875-56-32-56-22.082031 0-32 44.480469-32 56 .046875 14.554688 9.910156 27.242188 24 30.878906v17.121094h-24c-4.417969 0-8 3.582031-8 8v16c-.003907 19.011719 13.371093 35.398438 32 39.199219v8.800781c-.042969 5.421875.742187 10.816406 2.320312 16-46.371093-3-82.417969-41.535156-82.320312-88v-9.121094c14.089843-3.636718 23.953125-16.324218 24-30.878906v-8c0-4.417969-3.582031-8-8-8h-16v-9.441406c9.566406-3.378906 15.972656-12.414063 16-22.558594 0-9.28125-7.519531-40-24-40s-24 30.71875-24 40c.027343 10.144531 6.433593 19.179688 16 22.558594v9.441406h-16c-4.417969 0-8.0000002 3.582031-8.0000002 8v8c.0468752 14.554688 9.9101562 27.242188 24.0000002 30.878906v9.121094c0 57.4375 46.5625 104 104 104h2c9.527343 13.703125 24.671875 22.441406 41.304687 23.835938 16.632813 1.390624 33.019532-4.707032 44.695313-16.636719v26c-13.9375 3.789062-23.609375 16.441406-23.609375 30.878906 0 14.441406 9.671875 27.09375 23.609375 30.882813v26.558593c-11.019531 3.898438-17.632813 15.164063-15.65625 26.6875 1.976562 11.519531 11.96875 19.941407 23.65625 19.941407s21.675781-8.421876 23.652343-19.941407c1.976563-11.523437-4.632812-22.789062-15.652343-26.6875v-33.519531c0-4.417969-3.582031-8-8-8-8.835938 0-16-7.164062-16-16s7.164062-16 16-16c8.835937 0 16 7.164062 16 16 0 4.417969 3.582031 8 8 8s8-3.582031 8-8c-.046875-14.554688-9.910157-27.242188-24-30.878906v-26c11.664062 11.9375 28.042969 18.050781 44.675781 16.671875 16.632812-1.375 31.78125-10.101563 41.324219-23.792969h2c57.4375 0 104-46.5625 104-104v-16c0-4.417969-3.582031-8-8-8-8.835938 0-16-7.164062-16-16h40c4.417969 0 8-3.582031 8-8s-3.582031-8-8-8zm-24-55.359375c4.597656 6.984375 7.347656 15.023437 8 23.359375 0 4.417969-3.582031 8-8 8s-8-3.582031-8-8c.652343-8.335938 3.402343-16.375 8-23.359375zm-112 63.359375c0-13.28125 10.320312-39.039062 16-40 5.757812.960938 16 26.71875 16 40 0 8.835938-7.164063 16-16 16-8.835938 0-16-7.164062-16-16zm-272-63.359375c4.597656 6.984375 7.347656 15.023437 8 23.359375 0 4.417969-3.582031 8-8 8s-8-3.582031-8-8c.652343-8.335938 3.402343-16.375 8-23.359375zm-16 71.359375h32c0 8.835938-7.164063 16-16 16-8.835938 0-16-7.164062-16-16zm208 296c-4.417969 0-8-3.582031-8-8s3.582031-8 8-8 8 3.582031 8 8-3.582031 8-8 8zm72-232v-8h48v8c0 13.253906-10.746094 24-24 24-13.253907 0-24-10.746094-24-24zm-192 0v-8h48v8c0 13.253906-10.746094 24-24 24-13.253907 0-24-10.746094-24-24zm72 88c-9.792969-.007812-19.230469-3.65625-26.480469-10.238281 27.550781-5.878907 51.539062-22.679688 66.480469-46.5625v16.800781c0 22.089844-17.910157 40-40 40zm96 0c-22.09375 0-40-17.910156-40-40v-16.800781c14.9375 23.882812 38.929687 40.683593 66.480469 46.5625-7.25 6.582031-16.6875 10.230469-26.480469 10.238281zm0 0"/></svg>