<?xml version="1.0" encoding="iso-8859-1"?>
<!-- Generator: Adobe Illustrator 22.0.1, SVG Export Plug-In . SVG Version: 6.00 Build 0)  -->
<svg version="1.1" id="Layer_1" xmlns="http://www.w3.org/2000/svg" xmlns:xlink="http://www.w3.org/1999/xlink" x="0px" y="0px"
	 viewBox="0 0 100.25 100.25" style="enable-background:new 0 0 100.25 100.25;" xml:space="preserve">
<g>
	<path d="M84.5,5.893h-70c-0.829,0-1.5,0.671-1.5,1.5v78c0,0.828,0.671,1.5,1.5,1.5H25v8.5c0,0.828,0.671,1.5,1.5,1.5
		s1.5-0.672,1.5-1.5v-8.5h40v8.5c0,0.828,0.672,1.5,1.5,1.5s1.5-0.672,1.5-1.5v-8.5h13.5c0.828,0,1.5-0.672,1.5-1.5v-78
		C86,6.564,85.328,5.893,84.5,5.893z M83,8.893v27H16v-27H83z M16,83.893v-45h67v45H16z"/>
	<path d="M23.5,31.893h20c0.829,0,1.5-0.671,1.5-1.5v-15c0-0.829-0.671-1.5-1.5-1.5h-20c-0.829,0-1.5,0.671-1.5,1.5v15
		C22,31.222,22.671,31.893,23.5,31.893z M25,16.893h17v12H25V16.893z"/>
	<path d="M55.5,31.893h20c0.828,0,1.5-0.671,1.5-1.5v-15c0-0.829-0.672-1.5-1.5-1.5h-20c-0.828,0-1.5,0.671-1.5,1.5v15
		C54,31.222,54.672,31.893,55.5,31.893z M57,16.893h17v12H57V16.893z"/>
</g>
</svg>
