<?xml version="1.0" encoding="iso-8859-1"?>
<!-- Generator: Adobe Illustrator 22.0.1, SVG Export Plug-In . SVG Version: 6.00 Build 0)  -->
<svg version="1.1" id="Layer_1" xmlns="http://www.w3.org/2000/svg" xmlns:xlink="http://www.w3.org/1999/xlink" x="0px" y="0px"
	 viewBox="0 0 100.25 100.25" style="enable-background:new 0 0 100.25 100.25;" xml:space="preserve">
<g>
	<g>
		<g>
			<defs>
				<circle id="SVGID_1_" cx="51.072" cy="49.071" r="26.044"/>
			</defs>
			<clipPath id="SVGID_2_">
				<use xlink:href="#SVGID_1_"  style="overflow:visible;"/>
			</clipPath>
			<path style="clip-path:url(#SVGID_2_);" d="M82.798,55.62H38.84v-13.1h43.958c0.828,0,1.5-0.671,1.5-1.5s-0.672-1.5-1.5-1.5
				H53.992V21.133c0-0.829-0.672-1.5-1.5-1.5s-1.5,0.671-1.5,1.5v18.388H4.193c-0.829,0-1.5,0.671-1.5,1.5s0.671,1.5,1.5,1.5H35.84
				v13.1H4.193c-0.829,0-1.5,0.672-1.5,1.5s0.671,1.5,1.5,1.5H61.41v13.653c0,0.828,0.672,1.5,1.5,1.5s1.5-0.672,1.5-1.5V58.62
				h18.388c0.828,0,1.5-0.672,1.5-1.5S83.626,55.62,82.798,55.62z"/>
			
				<use xlink:href="#SVGID_1_"  style="overflow:visible;fill:none;stroke:#000000;stroke-width:3;stroke-linejoin:round;stroke-miterlimit:10;"/>
		</g>
	</g>
	
		<rect x="15.558" y="8.821" style="fill:none;stroke:#000000;stroke-width:3;stroke-linecap:round;stroke-linejoin:round;stroke-miterlimit:10;" width="69.134" height="82.393"/>
</g>
</svg>
