<?xml version="1.0" encoding="iso-8859-1"?>
<!-- Generator: Adobe Illustrator 21.0.2, SVG Export Plug-In . SVG Version: 6.00 Build 0)  -->
<svg version="1.1" id="Layer_1" xmlns="http://www.w3.org/2000/svg" xmlns:xlink="http://www.w3.org/1999/xlink" x="0px" y="0px"
	 viewBox="0 0 100.5 100.5" style="enable-background:new 0 0 100.5 100.5;" xml:space="preserve">
<path d="M89.398,9.602H11.102c-0.829,0-1.5,0.672-1.5,1.5v78.296c0,0.828,0.671,1.5,1.5,1.5h29.937c0.829,0,1.5-0.672,1.5-1.5
	s-0.671-1.5-1.5-1.5H12.602V64.72h15.353c0.829,0,1.5-0.672,1.5-1.5s-0.671-1.5-1.5-1.5H12.602V12.602H50.75v23.672
	c0,0.828,0.671,1.5,1.5,1.5s1.5-0.672,1.5-1.5V12.602h34.148v37.064H39.482c-0.829,0-1.5,0.672-1.5,1.5s0.671,1.5,1.5,1.5h48.416
	v35.231H66.123l-11.23-16.352c-0.468-0.682-1.403-0.857-2.085-0.387c-0.683,0.469-0.856,1.402-0.387,2.086l11.677,17.002
	c0.28,0.407,0.742,0.65,1.236,0.65h24.065c0.829,0,1.5-0.672,1.5-1.5V11.102C90.898,10.274,90.227,9.602,89.398,9.602z"/>
</svg>
