<?xml version="1.0" encoding="iso-8859-1"?>
<!-- Generator: Adobe Illustrator 21.0.2, SVG Export Plug-In . SVG Version: 6.00 Build 0)  -->
<svg version="1.1" id="Layer_1" xmlns="http://www.w3.org/2000/svg" xmlns:xlink="http://www.w3.org/1999/xlink" x="0px" y="0px"
	 viewBox="0 0 100.5 100.5" style="enable-background:new 0 0 100.5 100.5;" xml:space="preserve">
<path d="M87.25,61.525H38.475V12.751c0-0.829-0.671-1.5-1.5-1.5H12.75c-0.829,0-1.5,0.671-1.5,1.5v50.274v24.226
	c0,0.829,0.671,1.5,1.5,1.5h74.5c0.828,0,1.5-0.671,1.5-1.5V63.025C88.75,62.196,88.078,61.525,87.25,61.525z M35.475,14.251v47.274
	H14.25V51.501h7.279c0.829,0,1.5-0.671,1.5-1.5s-0.671-1.5-1.5-1.5H14.25v-9.72h13.342c0.829,0,1.5-0.671,1.5-1.5
	s-0.671-1.5-1.5-1.5H14.25v-9.72h7.279c0.829,0,1.5-0.671,1.5-1.5s-0.671-1.5-1.5-1.5H14.25v-8.81H35.475z M85.75,85.751h-71.5
	V64.525h71.5V85.751z"/>
<path d="M75.134,81.484c3.5,0,6.347-2.848,6.347-6.348s-2.848-6.347-6.347-6.347c-3.5,0-6.348,2.847-6.348,6.347
	C68.786,78.636,71.634,81.484,75.134,81.484z M75.134,71.789c1.845,0,3.347,1.501,3.347,3.347c0,1.846-1.502,3.348-3.347,3.348
	c-1.846,0-3.348-1.502-3.348-3.348C71.786,73.291,73.288,71.789,75.134,71.789z"/>
</svg>
