<?xml version="1.0" encoding="iso-8859-1"?>
<!-- Generator: Adobe Illustrator 22.0.1, SVG Export Plug-In . SVG Version: 6.00 Build 0)  -->
<svg version="1.1" id="Layer_1" xmlns="http://www.w3.org/2000/svg" xmlns:xlink="http://www.w3.org/1999/xlink" x="0px" y="0px"
	 viewBox="0 0 100.25 100.25" style="enable-background:new 0 0 100.25 100.25;" xml:space="preserve">
<g>
	<path d="M45,8.75c0-0.829-0.671-1.5-1.5-1.5h-30c-0.829,0-1.5,0.671-1.5,1.5v63.188c0,8.994,7.317,16.312,16.311,16.312h0.354
		C37.672,88.25,45,80.923,45,71.916V8.75z M15,28.25h27v28H15V28.25z M42,10.25v15H15v-15H42z M28.666,85.25h-0.354
		C20.971,85.25,15,79.278,15,71.938V59.25h27v12.666C42,79.269,36.018,85.25,28.666,85.25z"/>
	<path d="M50.364,69.624c0.292,0.288,0.672,0.432,1.053,0.432c0.388,0,0.774-0.149,1.068-0.446l30.253-30.672
		c0.575-0.584,0.575-1.522,0-2.106L62.294,16.103c-0.564-0.572-1.572-0.571-2.137,0l-9.808,9.945
		c-0.582,0.59-0.575,1.54,0.015,2.121c0.588,0.581,1.539,0.575,2.122-0.015l8.74-8.862l18.338,18.591L50.349,67.502
		C49.767,68.092,49.774,69.042,50.364,69.624z"/>
	<path d="M90.5,57.25h-21c-0.828,0-1.5,0.672-1.5,1.5s0.672,1.5,1.5,1.5H89v27H44.5c-0.829,0-1.5,0.672-1.5,1.5s0.671,1.5,1.5,1.5
		h46c0.828,0,1.5-0.672,1.5-1.5v-30C92,57.922,91.328,57.25,90.5,57.25z"/>
	<path d="M28.5,67.25c-3.033,0-5.5,2.468-5.5,5.5s2.467,5.5,5.5,5.5s5.5-2.468,5.5-5.5S31.533,67.25,28.5,67.25z M28.5,75.25
		c-1.378,0-2.5-1.121-2.5-2.5s1.122-2.5,2.5-2.5s2.5,1.121,2.5,2.5S29.878,75.25,28.5,75.25z"/>
</g>
</svg>
