<?xml version="1.0" encoding="iso-8859-1"?>
<!-- Generator: Adobe Illustrator 22.0.1, SVG Export Plug-In . SVG Version: 6.00 Build 0)  -->
<svg version="1.1" id="Layer_1" xmlns="http://www.w3.org/2000/svg" xmlns:xlink="http://www.w3.org/1999/xlink" x="0px" y="0px"
	 viewBox="0 0 100.25 100.25" style="enable-background:new 0 0 100.25 100.25;" xml:space="preserve">
<g>
	<path d="M84.5,5.25h-69c-0.829,0-1.5,0.671-1.5,1.5v76c0,0.828,0.671,1.5,1.5,1.5H26v9.5c0,0.828,0.671,1.5,1.5,1.5
		s1.5-0.672,1.5-1.5v-9.5h40v9.5c0,0.828,0.672,1.5,1.5,1.5s1.5-0.672,1.5-1.5v-9.5h12.5c0.828,0,1.5-0.672,1.5-1.5v-76
		C86,5.921,85.328,5.25,84.5,5.25z M17,8.25h31v73H17V8.25z M83,81.25H51v-73h32V81.25z"/>
	<path d="M40.5,37.25c-0.829,0-1.5,0.671-1.5,1.5v12c0,0.828,0.671,1.5,1.5,1.5s1.5-0.672,1.5-1.5v-12
		C42,37.921,41.329,37.25,40.5,37.25z"/>
	<path d="M58.5,52.25c0.828,0,1.5-0.672,1.5-1.5v-12c0-0.829-0.672-1.5-1.5-1.5s-1.5,0.671-1.5,1.5v12
		C57,51.578,57.672,52.25,58.5,52.25z"/>
</g>
</svg>
