<?xml version="1.0" encoding="iso-8859-1"?>
<!-- Generator: Adobe Illustrator 22.0.1, SVG Export Plug-In . SVG Version: 6.00 Build 0)  -->
<svg version="1.1" id="Layer_1" xmlns="http://www.w3.org/2000/svg" xmlns:xlink="http://www.w3.org/1999/xlink" x="0px" y="0px"
	 viewBox="0 0 100.25 100.25" style="enable-background:new 0 0 100.25 100.25;" xml:space="preserve">
<path d="M94.5,38.25h-12c-0.176,0-0.343,0.036-0.5,0.092V25.75c0-0.829-0.672-1.5-1.5-1.5h-61c-0.829,0-1.5,0.671-1.5,1.5v12.5H6.5
	c-0.829,0-1.5,0.671-1.5,1.5v32c0,0.828,0.671,1.5,1.5,1.5H24v8.5c0,0.828,0.671,1.5,1.5,1.5s1.5-0.672,1.5-1.5v-8.5h45v8.5
	c0,0.828,0.672,1.5,1.5,1.5s1.5-0.672,1.5-1.5v-8.5h19.5c0.828,0,1.5-0.672,1.5-1.5v-32C96,38.921,95.328,38.25,94.5,38.25z
	 M79,27.25v29H52v-29H79z M21,27.25h28v29H21V27.25z M93,70.25H8v-29h10v16.5c0,0.828,0.671,1.5,1.5,1.5h61
	c0.828,0,1.5-0.672,1.5-1.5V41.158c0.157,0.056,0.324,0.092,0.5,0.092H93V70.25z"/>
</svg>
