<?xml version="1.0" encoding="iso-8859-1"?>
<!-- Generator: Adobe Illustrator 21.0.0, SVG Export Plug-In . SVG Version: 6.00 Build 0)  -->
<svg version="1.1" id="Layer_1" xmlns="http://www.w3.org/2000/svg" xmlns:xlink="http://www.w3.org/1999/xlink" x="0px" y="0px"
	 viewBox="0 0 100.353 100.353" style="enable-background:new 0 0 100.353 100.353;" xml:space="preserve">
<g>
	<path style="fill:#231F20;" d="M38.748,19.585c-0.441-0.274-0.992-0.299-1.458-0.069L21.102,27.55
		c-0.517,0.256-0.84,0.787-0.833,1.363l0.27,20.523c0.007,0.515,0.277,0.991,0.717,1.259c0.24,0.147,0.511,0.221,0.783,0.221
		c0.227,0,0.455-0.051,0.665-0.155l15.918-7.87c0.511-0.253,0.835-0.774,0.835-1.345V20.859
		C39.458,20.341,39.189,19.859,38.748,19.585z M36.458,40.615l-12.949,6.402l-0.227-17.199l13.176-6.539L36.458,40.615
		L36.458,40.615z"/>
	<path style="fill:#231F20;" d="M91.215,74.642c0-0.012-0.002-0.023-0.002-0.035c0-0.125-0.019-0.25-0.051-0.374
		c-0.004-0.016-0.002-0.033-0.007-0.05L74.374,17.658c-0.108-0.363-0.349-0.671-0.674-0.864L48.731,2.016
		c-0.011-0.006-0.023-0.008-0.035-0.015c-0.091-0.051-0.187-0.091-0.287-0.122c-0.034-0.01-0.067-0.019-0.101-0.027
		c-0.09-0.021-0.181-0.034-0.273-0.038c-0.026-0.001-0.052-0.005-0.079-0.005c-0.117,0-0.234,0.014-0.351,0.043
		c-0.023,0.005-0.044,0.016-0.066,0.022c-0.067,0.021-0.134,0.039-0.199,0.069L9.656,19.272c-0.533,0.245-0.874,0.777-0.874,1.363
		v47.112c0,0.003,0.001,0.006,0.001,0.009c0.001,0.115,0.017,0.229,0.044,0.34c0.007,0.031,0.019,0.06,0.028,0.09
		c0.025,0.081,0.056,0.159,0.094,0.235c0.016,0.031,0.032,0.062,0.05,0.092c0.046,0.077,0.099,0.148,0.158,0.216
		c0.017,0.02,0.031,0.041,0.049,0.06c0.076,0.079,0.16,0.152,0.256,0.214l44.399,28.943c0.249,0.162,0.534,0.243,0.819,0.243
		c0.277,0,0.555-0.077,0.8-0.231l35.034-22.08c0.028-0.018,0.051-0.041,0.078-0.061c0.012-0.009,0.027-0.012,0.04-0.021
		c0.014-0.011,0.022-0.027,0.036-0.038c0.212-0.176,0.365-0.398,0.453-0.646c0.01-0.029,0.02-0.057,0.029-0.086
		C91.188,74.903,91.212,74.774,91.215,74.642z M49.467,5.939l22.198,13.139l15.509,52.243L49.466,48.504V5.939H49.467z
		 M11.784,21.598L46.468,5.648v42.763L11.784,65.347V21.598z M54.697,94.91L13.319,67.936l34.572-16.881l38.972,23.582L54.697,94.91
		z"/>
</g>
</svg>
