<?xml version="1.0" encoding="iso-8859-1"?>
<!-- Generator: Adobe Illustrator 22.0.1, SVG Export Plug-In . SVG Version: 6.00 Build 0)  -->
<svg version="1.1" id="Layer_1" xmlns="http://www.w3.org/2000/svg" xmlns:xlink="http://www.w3.org/1999/xlink" x="0px" y="0px"
	 viewBox="0 0 100.25 100.25" style="enable-background:new 0 0 100.25 100.25;" xml:space="preserve">
<g>
	<path d="M82.5,7.25h-66c-0.829,0-1.5,0.671-1.5,1.5v83c0,0.828,0.671,1.5,1.5,1.5h66c0.828,0,1.5-0.672,1.5-1.5v-83
		C84,7.921,83.328,7.25,82.5,7.25z M35,59.25h15v30.5c0,0.176,0.036,0.343,0.092,0.5H34.908C34.964,90.093,35,89.926,35,89.75V59.25
		z M18,56.25v-33h22.092C40.036,23.407,40,23.574,40,23.75v4.471l-8.399,6.331c-0.515,0.388-0.724,1.062-0.52,1.674
		s0.777,1.024,1.422,1.024h17.72c0.641,0,1.211-0.407,1.419-1.013c0.208-0.606,0.008-1.278-0.498-1.671L43,28.233V23.75
		c0-0.176-0.036-0.343-0.092-0.5h22.184C65.036,23.407,65,23.574,65,23.75v4.471l-8.399,6.331c-0.515,0.388-0.724,1.062-0.52,1.674
		c0.205,0.612,0.778,1.024,1.423,1.024h17.72c0.641,0,1.211-0.407,1.419-1.013c0.208-0.606,0.008-1.278-0.498-1.671L68,28.233V23.75
		c0-0.176-0.036-0.343-0.092-0.5H80.5c0.176,0,0.343-0.036,0.5-0.092v33.184c-0.157-0.056-0.324-0.092-0.5-0.092H18z M41.487,30.857
		l4.364,3.393h-8.866L41.487,30.857z M66.487,30.857l4.363,3.393h-8.865L66.487,30.857z M81,10.25v10.092
		c-0.157-0.056-0.324-0.092-0.5-0.092H18v-10H81z M18,59.25h14v30.5c0,0.176,0.036,0.343,0.092,0.5H18V59.25z M52.908,90.25
		C52.964,90.093,53,89.926,53,89.75v-30.5h27.5c0.176,0,0.343-0.036,0.5-0.092V90.25H52.908z"/>
	<path d="M42.5,79.25c0.829,0,1.5-0.672,1.5-1.5v-5c0-0.828-0.671-1.5-1.5-1.5s-1.5,0.672-1.5,1.5v5
		C41,78.578,41.671,79.25,42.5,79.25z"/>
	<path d="M24.5,71.25c-0.829,0-1.5,0.672-1.5,1.5v5c0,0.828,0.671,1.5,1.5,1.5s1.5-0.672,1.5-1.5v-5
		C26,71.922,25.329,71.25,24.5,71.25z"/>
</g>
</svg>
