<?xml version="1.0" encoding="iso-8859-1"?>
<!-- Generator: Adobe Illustrator 22.0.1, SVG Export Plug-In . SVG Version: 6.00 Build 0)  -->
<svg version="1.1" id="Layer_1" xmlns="http://www.w3.org/2000/svg" xmlns:xlink="http://www.w3.org/1999/xlink" x="0px" y="0px"
	 viewBox="0 0 100.25 100.25" style="enable-background:new 0 0 100.25 100.25;" xml:space="preserve">
<path d="M75.994,10.338c-6.257-0.556-12.242,1.465-16.847,5.682C54.605,20.179,52,26.095,52,32.25v21H20v-17h10.859
	c0.444,0,0.866-0.197,1.151-0.538c0.285-0.341,0.404-0.792,0.325-1.229l-3.978-22c-0.129-0.714-0.75-1.233-1.476-1.233H9.977
	c-0.726,0-1.347,0.519-1.476,1.233l-3.977,22c-0.079,0.437,0.04,0.887,0.325,1.229C5.134,36.053,5.556,36.25,6,36.25h11v17H6.5
	c-0.829,0-1.5,0.672-1.5,1.5v36c0,0.828,0.671,1.5,1.5,1.5h12c0.829,0,1.5-0.672,1.5-1.5v-17.5h32v17.5c0,0.828,0.672,1.5,1.5,1.5
	h12c0.828,0,1.5-0.672,1.5-1.5v-17.5h14v17.5c0,0.828,0.672,1.5,1.5,1.5h12c0.828,0,1.5-0.672,1.5-1.5V32.713
	C96,21.156,87.212,11.328,75.994,10.338z M7.795,33.25l3.435-19h14.398l3.436,19H7.795z M64,89.25h-9v-17.5
	c0-0.828-0.672-1.5-1.5-1.5h-35c-0.829,0-1.5,0.672-1.5,1.5v17.5H8v-33h56V89.25z M93,89.25h-9v-17.5c0-0.828-0.672-1.5-1.5-1.5H67
	v-15.5c0-0.828-0.672-1.5-1.5-1.5H55v-21c0-5.316,2.25-10.425,6.173-14.017c3.978-3.642,9.148-5.383,14.558-4.906
	C85.414,14.181,93,22.696,93,32.713V89.25z"/>
</svg>
