<?xml version="1.0" encoding="iso-8859-1"?>
<!-- Generator: Adobe Illustrator 22.0.1, SVG Export Plug-In . SVG Version: 6.00 Build 0)  -->
<svg version="1.1" id="Layer_1" xmlns="http://www.w3.org/2000/svg" xmlns:xlink="http://www.w3.org/1999/xlink" x="0px" y="0px"
	 viewBox="0 0 100.25 100.25" style="enable-background:new 0 0 100.25 100.25;" xml:space="preserve">
<g>
	<path d="M73.5,17.25h-60c-0.829,0-1.5,0.671-1.5,1.5v76c0,0.828,0.671,1.5,1.5,1.5h60c0.828,0,1.5-0.672,1.5-1.5v-76
		C75,17.921,74.328,17.25,73.5,17.25z M72,93.25H15v-73h57V93.25z"/>
	<path d="M23.5,73.25h38c0.828,0,1.5-0.672,1.5-1.5s-0.672-1.5-1.5-1.5H48V58.526c2.223-1.608,8.626-6.681,8.626-11.733
		c0-4.675-2.854-9.028-7.447-11.36c-0.465-0.237-1.02-0.214-1.464,0.059C47.271,35.765,47,36.249,47,36.77v7.48h-9v-7.155
		c0-0.536-0.286-1.031-0.75-1.299c-0.464-0.269-1.036-0.268-1.5,0c-4.231,2.441-6.757,6.552-6.757,10.997
		c0,4.852,5.939,9.896,8.007,11.505V70.25H23.5c-0.829,0-1.5,0.672-1.5,1.5S22.671,73.25,23.5,73.25z M39.383,56.339
		c-2.055-1.498-7.39-6.134-7.39-9.546c0-2.503,1.09-4.883,3.007-6.72v5.677c0,0.829,0.671,1.5,1.5,1.5h12c0.829,0,1.5-0.671,1.5-1.5
		v-6.219c2.281,1.886,3.626,4.51,3.626,7.262c0,3.549-5.75,8.213-7.965,9.711C45.248,56.783,45,57.249,45,57.747V70.25h-5V57.552
		C40,57.072,39.771,56.621,39.383,56.339z"/>
	<path d="M85.5,5.25h-60c-0.829,0-1.5,0.671-1.5,1.5v7c0,0.829,0.671,1.5,1.5,1.5s1.5-0.671,1.5-1.5v-5.5h57v73h-5.5
		c-0.828,0-1.5,0.672-1.5,1.5s0.672,1.5,1.5,1.5h7c0.828,0,1.5-0.672,1.5-1.5v-76C87,5.921,86.328,5.25,85.5,5.25z"/>
</g>
</svg>
