<?xml version="1.0" encoding="iso-8859-1"?>
<!-- Generator: Adobe Illustrator 22.0.1, SVG Export Plug-In . SVG Version: 6.00 Build 0)  -->
<svg version="1.1" id="Layer_1" xmlns="http://www.w3.org/2000/svg" xmlns:xlink="http://www.w3.org/1999/xlink" x="0px" y="0px"
	 viewBox="0 0 100.25 100.25" style="enable-background:new 0 0 100.25 100.25;" xml:space="preserve">
<g>
	<path d="M26,61.75c0,0.828,0.671,1.5,1.5,1.5h5c0.829,0,1.5-0.672,1.5-1.5s-0.671-1.5-1.5-1.5h-5C26.671,60.25,26,60.922,26,61.75z
		"/>
	<path d="M93.5,19.25c-0.176,0-0.343,0.036-0.5,0.092c-0.157-0.056-0.324-0.092-0.5-0.092h-4c-0.828,0-1.5,0.671-1.5,1.5
		s0.672,1.5,1.5,1.5H92v38H77.5c-0.828,0-1.5,0.672-1.5,1.5v0.998c0,13.938-11.178,24.449-26,24.449c-14.58,0-26-11.178-26-25.447
		c0-0.828-0.671-1.5-1.5-1.5H8v-38h3.5c0.829,0,1.5-0.671,1.5-1.5s-0.671-1.5-1.5-1.5h-4c-0.176,0-0.343,0.036-0.5,0.092
		c-0.157-0.056-0.324-0.092-0.5-0.092c-0.829,0-1.5,0.671-1.5,1.5v41c0,0.828,0.671,1.5,1.5,1.5h14.538
		C21.808,78.479,34.251,90.197,50,90.197c16.355,0,28.731-11.55,28.996-26.947H93.5c0.828,0,1.5-0.672,1.5-1.5v-41
		C95,19.921,94.328,19.25,93.5,19.25z"/>
	<path d="M65,61.75c0,0.828,0.672,1.5,1.5,1.5h5c0.828,0,1.5-0.672,1.5-1.5s-0.672-1.5-1.5-1.5h-5C65.672,60.25,65,60.922,65,61.75z
		"/>
	<path d="M52,61.75c0,0.828,0.672,1.5,1.5,1.5h5c0.828,0,1.5-0.672,1.5-1.5s-0.672-1.5-1.5-1.5h-5C52.672,60.25,52,60.922,52,61.75z
		"/>
	<path d="M39,61.75c0,0.828,0.671,1.5,1.5,1.5h5c0.829,0,1.5-0.672,1.5-1.5s-0.671-1.5-1.5-1.5h-5C39.671,60.25,39,60.922,39,61.75z
		"/>
	<path d="M47.5,22.25h4c0.828,0,1.5-0.671,1.5-1.5s-0.672-1.5-1.5-1.5h-4c-0.829,0-1.5,0.671-1.5,1.5S46.671,22.25,47.5,22.25z"/>
	<path d="M35.5,22.25h4c0.829,0,1.5-0.671,1.5-1.5s-0.671-1.5-1.5-1.5h-4c-0.829,0-1.5,0.671-1.5,1.5S34.671,22.25,35.5,22.25z"/>
	<path d="M22.5,22.25h4c0.829,0,1.5-0.671,1.5-1.5s-0.671-1.5-1.5-1.5h-4c-0.829,0-1.5,0.671-1.5,1.5S21.671,22.25,22.5,22.25z"/>
	<path d="M60.5,22.25h4c0.828,0,1.5-0.671,1.5-1.5s-0.672-1.5-1.5-1.5h-4c-0.828,0-1.5,0.671-1.5,1.5S59.672,22.25,60.5,22.25z"/>
	<path d="M73.5,22.25h4c0.828,0,1.5-0.671,1.5-1.5s-0.672-1.5-1.5-1.5h-4c-0.828,0-1.5,0.671-1.5,1.5S72.672,22.25,73.5,22.25z"/>
</g>
</svg>
