<?xml version="1.0" encoding="iso-8859-1"?>
<!-- Generator: Adobe Illustrator 22.0.1, SVG Export Plug-In . SVG Version: 6.00 Build 0)  -->
<svg version="1.1" id="Layer_1" xmlns="http://www.w3.org/2000/svg" xmlns:xlink="http://www.w3.org/1999/xlink" x="0px" y="0px"
	 viewBox="0 0 100.25 100.25" style="enable-background:new 0 0 100.25 100.25;" xml:space="preserve">
<g>
	<path d="M91.5,22.25c-0.828,0-1.5,0.671-1.5,1.5v26.5H52v-25h11.5c0.828,0,1.5-0.671,1.5-1.5s-0.672-1.5-1.5-1.5h-55
		c-0.829,0-1.5,0.671-1.5,1.5v63c0,0.828,0.671,1.5,1.5,1.5h83c0.828,0,1.5-0.672,1.5-1.5v-63C93,22.921,92.328,22.25,91.5,22.25z
		 M49,25.25v25H10v-25H49z M10,53.25h39v32H10V53.25z M52,85.25v-32h38v32H52z"/>
	<path d="M62.5,31.25c-4.136,0-7.5,3.364-7.5,7.5s3.364,7.5,7.5,7.5h15c4.136,0,7.5-3.364,7.5-7.5s-3.364-7.5-7.5-7.5H73V20.395
		c0-2.912,2.422-5.281,5.398-5.281s5.398,2.369,5.398,5.281c0,0.829,0.672,1.5,1.5,1.5s1.5-0.671,1.5-1.5
		c0-4.566-3.768-8.281-8.398-8.281S70,15.828,70,20.395V31.25H62.5z M82,38.75c0,2.481-2.019,4.5-4.5,4.5h-15
		c-2.481,0-4.5-2.019-4.5-4.5s2.019-4.5,4.5-4.5h15C79.981,34.25,82,36.269,82,38.75z"/>
	<path d="M16.5,34.25h7c0.829,0,1.5-0.671,1.5-1.5s-0.671-1.5-1.5-1.5h-7c-0.829,0-1.5,0.671-1.5,1.5S15.671,34.25,16.5,34.25z"/>
	<path d="M16.5,45.25h7c0.829,0,1.5-0.671,1.5-1.5s-0.671-1.5-1.5-1.5h-7c-0.829,0-1.5,0.671-1.5,1.5S15.671,45.25,16.5,45.25z"/>
	<path d="M34.5,34.25h7c0.829,0,1.5-0.671,1.5-1.5s-0.671-1.5-1.5-1.5h-7c-0.829,0-1.5,0.671-1.5,1.5S33.671,34.25,34.5,34.25z"/>
	<path d="M34.5,45.25h7c0.829,0,1.5-0.671,1.5-1.5s-0.671-1.5-1.5-1.5h-7c-0.829,0-1.5,0.671-1.5,1.5S33.671,45.25,34.5,45.25z"/>
</g>
</svg>
