<?xml version="1.0" encoding="iso-8859-1"?>
<!-- Generator: Adobe Illustrator 22.0.1, SVG Export Plug-In . SVG Version: 6.00 Build 0)  -->
<svg version="1.1" id="Layer_1" xmlns="http://www.w3.org/2000/svg" xmlns:xlink="http://www.w3.org/1999/xlink" x="0px" y="0px"
	 viewBox="0 0 100.25 100.25" style="enable-background:new 0 0 100.25 100.25;" xml:space="preserve">
<g>
	<path d="M90.5,7.25h-80C9.671,7.25,9,7.921,9,8.75v52.732c0,0.535,0.285,1.029,0.747,1.297L29.96,74.511
		c0.688,8.333,6.247,15.54,13.994,17.872c0.144,0.043,0.29,0.063,0.433,0.063c0.645,0,1.241-0.419,1.436-1.067
		c0.239-0.794-0.211-1.63-1.004-1.869c-7.025-2.114-11.932-9-11.932-16.744c0-6.501,3.382-12.413,8.827-15.43
		c0.725-0.402,0.986-1.314,0.585-2.039c-0.402-0.726-1.313-0.986-2.039-0.586c-5.911,3.276-9.745,9.431-10.297,16.333L12,60.619
		V10.25h77v50.369L70.333,71.454c-0.559-8.579-6.592-15.915-15.072-18.09c-0.805-0.208-1.62,0.278-1.826,1.08
		c-0.206,0.803,0.278,1.62,1.08,1.826c7.58,1.943,12.873,8.722,12.873,16.483c0,6.771-4.05,12.897-10.318,15.609
		c-0.76,0.329-1.11,1.212-0.781,1.973c0.245,0.566,0.798,0.904,1.378,0.904c0.198,0,0.4-0.039,0.595-0.123
		c6.683-2.891,11.206-9.094,11.992-16.167c0.036-0.017,0.074-0.025,0.11-0.045l20.891-12.125C91.716,62.512,92,62.018,92,61.482
		V8.75C92,7.921,91.328,7.25,90.5,7.25z"/>
	<path d="M57.691,71.838c-0.284-0.37-0.725-0.588-1.191-0.588H44.591l6.379-19.943c0.252-0.789-0.183-1.633-0.972-1.886
		c-0.788-0.25-1.633,0.183-1.886,0.972l-7.005,21.9c-0.146,0.456-0.065,0.955,0.217,1.342c0.282,0.387,0.732,0.615,1.211,0.615
		h12.005l-5.703,21.108c-0.216,0.8,0.257,1.624,1.057,1.84c0.131,0.035,0.263,0.052,0.392,0.052c0.661,0,1.267-0.44,1.447-1.108
		l6.214-23C58.07,72.69,57.975,72.209,57.691,71.838z"/>
</g>
</svg>
