<?xml version="1.0" encoding="iso-8859-1"?>
<!-- Generator: Adobe Illustrator 22.0.1, SVG Export Plug-In . SVG Version: 6.00 Build 0)  -->
<svg version="1.1" id="Layer_1" xmlns="http://www.w3.org/2000/svg" xmlns:xlink="http://www.w3.org/1999/xlink" x="0px" y="0px"
	 viewBox="0 0 100.25 100.25" style="enable-background:new 0 0 100.25 100.25;" xml:space="preserve">
<g>
	<path d="M31.608,87.725H15.972V12.256h62.841v39.989c0,0.828,0.672,1.5,1.5,1.5s1.5-0.672,1.5-1.5V10.756
		c0-0.829-0.672-1.5-1.5-1.5H14.472c-0.829,0-1.5,0.671-1.5,1.5v78.468c0,0.828,0.671,1.5,1.5,1.5h17.137c0.829,0,1.5-0.672,1.5-1.5
		S32.437,87.725,31.608,87.725z"/>
	<path d="M66.784,28.197H42.432c-0.829,0-1.5,0.671-1.5,1.5s0.671,1.5,1.5,1.5h24.353c0.828,0,1.5-0.671,1.5-1.5
		S67.612,28.197,66.784,28.197z"/>
	<path d="M33.987,24.445c-1.171-0.905-2.62-1.301-4.091-1.108c-3.025,0.394-5.167,3.181-4.775,6.212
		c0.19,1.468,0.939,2.775,2.109,3.679c0.978,0.756,2.153,1.155,3.368,1.155c0.24,0,0.481-0.016,0.724-0.047
		c3.025-0.394,5.167-3.181,4.775-6.212C35.906,26.655,35.157,25.349,33.987,24.445z M30.934,31.362
		c-0.669,0.089-1.333-0.093-1.87-0.507c-0.537-0.415-0.881-1.016-0.968-1.69c-0.18-1.393,0.801-2.672,2.187-2.853
		c0.11-0.014,0.221-0.021,0.33-0.021c0.555,0,1.092,0.183,1.54,0.528c0.537,0.415,0.881,1.015,0.968,1.69
		C33.301,29.901,32.32,31.181,30.934,31.362z"/>
	<path d="M66.784,43.53H42.432c-0.829,0-1.5,0.671-1.5,1.5s0.671,1.5,1.5,1.5h24.353c0.828,0,1.5-0.671,1.5-1.5
		S67.612,43.53,66.784,43.53z"/>
	<path d="M33.987,40.628c-1.171-0.905-2.624-1.301-4.091-1.108c-3.025,0.394-5.167,3.181-4.775,6.212
		c0.19,1.468,0.939,2.775,2.109,3.679c0.978,0.756,2.153,1.155,3.368,1.155c0.24,0,0.481-0.016,0.724-0.047
		c3.025-0.394,5.167-3.181,4.775-6.212C35.906,42.839,35.157,41.533,33.987,40.628z M30.934,47.545
		c-0.669,0.089-1.333-0.093-1.87-0.507c-0.537-0.415-0.881-1.016-0.968-1.69c-0.18-1.393,0.801-2.672,2.187-2.853
		c0.11-0.014,0.221-0.021,0.33-0.021c0.555,0,1.092,0.183,1.54,0.528c0.537,0.415,0.881,1.016,0.968,1.69
		C33.301,46.085,32.32,47.365,30.934,47.545z"/>
	<path d="M87.528,67.882h-5.716v-6.617c0-0.828-0.672-1.5-1.5-1.5H47.843c-0.829,0-1.5,0.672-1.5,1.5v6.617H41.53
		c-0.829,0-1.5,0.672-1.5,1.5v16.235c0,0.828,0.671,1.5,1.5,1.5h8.421v3.911c0,0.828,0.671,1.5,1.5,1.5c0.828,0,1.5-0.672,1.5-1.5
		v-3.911h22.254v3.911c0,0.828,0.672,1.5,1.5,1.5s1.5-0.672,1.5-1.5v-3.911h9.323c0.828,0,1.5-0.672,1.5-1.5V69.382
		C89.028,68.554,88.356,67.882,87.528,67.882z M49.343,62.765h29.469v11.432H49.343V62.765z M86.028,84.117H43.03V70.882h3.313
		v4.814c0,0.828,0.671,1.5,1.5,1.5h32.469c0.828,0,1.5-0.672,1.5-1.5v-4.814h4.216V84.117z"/>
</g>
</svg>
