<svg height="480pt" viewBox="0 0 480 480.00004" width="480pt" xmlns="http://www.w3.org/2000/svg"><path d="m128 176c4.417969 0 8-3.582031 8-8s-3.582031-8-8-8c-8.835938 0-16-7.164062-16-16v-112c0-8.835938 7.164062-16 16-16h108.71875l97.601562 97.679688c1.5 1.515624 3.546876 2.367187 5.679688 2.367187s4.179688-.851563 5.679688-2.367187c1.515624-1.5 2.367187-3.546876 2.367187-5.679688s-.851563-4.179688-2.367187-5.679688l-86.398438-86.320312h92.71875c8.835938 0 16 7.164062 16 16v112c0 8.835938-7.164062 16-16 16-4.417969 0-8 3.582031-8 8s3.582031 8 8 8c17.671875 0 32-14.328125 32-32v-112c0-17.671875-14.328125-32-32-32h-224c-17.671875 0-32 14.328125-32 32v112c0 17.671875 14.328125 32 32 32zm0 0"/><path d="m320 312h-56v-72c0-13.253906-10.746094-24-24-24s-24 10.746094-24 24v72h-56c-13.253906 0-24 10.746094-24 24v16c0 13.253906 10.746094 24 24 24h56v56h-32c-10.460938-.03125-19.734375 6.71875-22.925781 16.683594-3.1875 9.960937.441406 20.839844 8.972656 26.894531 8.535156 6.050781 20.003906 5.878906 28.351563-.425781 8.347656-6.304688 11.648437-17.289063 8.160156-27.152344h66.882812c-3.488281 9.863281-.1875 20.847656 8.160156 27.152344 8.347657 6.304687 19.816407 6.476562 28.351563.425781 8.53125-6.054687 12.160156-16.933594 8.972656-26.894531-3.191406-9.964844-12.464843-16.714844-22.925781-16.683594h-32v-56h56c13.253906 0 24-10.746094 24-24v-16c0-13.253906-10.746094-24-24-24zm-88-72c0-4.417969 3.582031-8 8-8s8 3.582031 8 8v80c0 4.417969-3.582031 8-8 8s-8-3.582031-8-8zm-40 216c0 4.417969-3.582031 8-8 8s-8-3.582031-8-8 3.582031-8 8-8 8 3.582031 8 8zm104 8c-4.417969 0-8-3.582031-8-8s3.582031-8 8-8 8 3.582031 8 8-3.582031 8-8 8zm-48-32h-16v-56h16zm80-80c0 4.417969-3.582031 8-8 8h-160c-4.417969 0-8-3.582031-8-8v-16c0-4.417969 3.582031-8 8-8h57.441406c3.445313 9.492188 12.460938 15.8125 22.558594 15.8125s19.113281-6.320312 22.558594-15.8125h57.441406c4.417969 0 8 3.582031 8 8zm0 0"/><path d="m472 224h-24v-8c0-13.253906-10.746094-24-24-24h-16c-13.253906 0-24 10.746094-24 24v8h-16.800781c-3.800781-18.625-20.1875-32.003906-39.199219-32v-40c0-22.089844-17.910156-40-40-40h-96c-22.089844 0-40 17.910156-40 40v40c-19.011719-.003906-35.398438 13.375-39.199219 32h-18.242187c.933594-2.566406 1.417968-5.269531 1.441406-8-.035156-5.921875-2.257812-11.617188-6.238281-16 3.980469-4.382812 6.203125-10.078125 6.238281-16 0-13.253906-10.746094-24-24-24h-64c-4.417969 0-8 3.582031-8 8s3.582031 8 8 8h64c4.417969 0 8 3.582031 8 8s-3.582031 8-8 8h-64c-4.417969 0-8 3.582031-8 8v32c0 4.417969 3.582031 8 8 8h144v8c.019531 2.6875.289062 5.363281.800781 8h-144.800781c-4.417969 0-8 3.582031-8 8s3.582031 8 8 8h24.558594l15.441406 200.640625c.335938 4.164063 3.820312 7.371094 8 7.359375h16c4.179688.011719 7.664062-3.195312 8-7.359375l15.441406-200.640625h64.558594c7.554688 10.070312 19.410156 16 32 16 4.417969 0 8-3.582031 8-8s-3.582031-8-8-8c-13.253906 0-24-10.746094-24-24v-96c0-13.253906 10.746094-24 24-24h96c13.253906 0 24 10.746094 24 24v96c0 13.253906-10.746094 24-24 24-4.417969 0-8 3.582031-8 8s3.582031 8 8 8c12.589844 0 24.445312-5.929688 32-16h72.800781l15.199219 200.640625c.335938 4.164063 3.820312 7.371094 8 7.359375h16c4.179688.011719 7.664062-3.195312 8-7.359375l13.519531-176c.175781-2.125-.5-4.230469-1.882812-5.851563-1.378907-1.621093-3.351563-2.625-5.476563-2.789062-4.394531-.320312-8.21875 2.96875-8.558594 7.359375l-13.042968 168.640625h-1.117188l-14.800781-192h63.359375c4.417969 0 8-3.582031 8-8v-32c0-4.417969-3.582031-8-8-8zm-407.441406 240h-1.117188l-14.800781-192h30.71875zm-48.558594-240v-16h56c4.417969 0 8 3.582031 8 8s-3.582031 8-8 8zm113.359375 0c3.390625-9.59375 12.464844-16.003906 22.640625-16v16zm270.640625-8c0-4.417969 3.582031-8 8-8h16c4.417969 0 8 3.582031 8 8v8h-32zm-49.359375 8h-22.640625v-16c10.175781-.003906 19.25 6.40625 22.640625 16zm113.359375 32h-136.800781c.511719-2.636719.78125-5.3125.800781-8v-8h136zm0 0"/></svg>